<?xml version="1.0" encoding="utf-8"?>
<!-- Generator: Adobe Illustrator 21.0.0, SVG Export Plug-In . SVG Version: 6.00 Build 0)  -->
<svg version="1.1" id="Ebene_1" xmlns="http://www.w3.org/2000/svg" xmlns:xlink="http://www.w3.org/1999/xlink" x="0px" y="0px"
	 viewBox="0 0 150 150" style="enable-background:new 0 0 150 150;" xml:space="preserve">
<style type="text/css">
	.st0{fill:#FFFFFF;}
</style>
<path class="st0" d="M148.4,46.5c-1.9-0.2-4.3-0.2-7,0.2c-0.9,0.2-1.8,0.4-2.6,0.6c-0.5,0.2-1-0.4-0.8-0.9l1.6-3.5
	c0.1-0.3,0-0.6-0.2-0.8l-8-5.3c-0.4-0.2-0.8-0.1-1,0.3c-1.3,3.3-3,6.9-5.2,10.7c-0.9,1.4-1.7,2.8-2.6,4.1c-0.3,0.4-0.8,0.4-1.1,0
	c-1.6-2.2-3.3-4.4-4.9-6.6c-0.1-0.1-0.1-0.3-0.1-0.4c0.2-5.2,1.2-9.2,2.2-12.2c3.2-9.5,8.9-15.1,6.5-19.5c-1.3-2.3-4.2-3-5.4-3.2
	c-11.9-2.6-26.3,15.7-30.4,21.4c-0.1,0.2-0.3,0.3-0.5,0.3h-3.9c-0.3,0-0.5-0.2-0.6-0.4c-2.4-5.9-4.8-11.7-7.3-17.6
	c-0.1-0.2-0.3-0.4-0.6-0.4h-2.5c-0.3,0-0.5,0.2-0.6,0.4c-2.4,5.9-4.8,11.7-7.3,17.6c-0.1,0.2-0.3,0.4-0.6,0.4h-3.9
	c-0.2,0-0.4-0.1-0.5-0.3c-4.1-5.7-18.5-24-30.4-21.4c-1.2,0.3-4.1,0.9-5.4,3.2c-2.4,4.3,3.3,10,6.5,19.5c1,3,2,7.1,2.2,12.2
	c0,0.2,0,0.3-0.1,0.4c-1.6,2.2-3.3,4.4-4.9,6.6c-0.3,0.4-0.8,0.4-1.1,0c-0.9-1.3-1.8-2.6-2.6-4.1c-2.2-3.8-3.9-7.4-5.2-10.7
	c-0.2-0.4-0.6-0.5-1-0.3l-8,5.3c-0.3,0.2-0.4,0.5-0.2,0.8l1.6,3.5c0.2,0.5-0.2,1-0.8,0.9c-0.8-0.2-1.7-0.4-2.6-0.6
	c-2.7-0.5-5.1-0.5-7-0.2c-0.3,0-0.6,0.3-0.6,0.7v8.3c0,0.2,0.1,0.3,0.2,0.5c0.5,0.6,1.2,1.2,2,1.7c1,0.7,2,1.2,3,1.5
	c0.6,0.2,0.6,1,0.1,1.2c-1,0.5-2,1-3.1,1.6c-0.3,0.2-0.5,0.3-0.8,0.5c-0.2,0.1-0.3,0.3-0.3,0.6c0,1.7,0.2,4,1.1,6.5
	c0.2,0.6,0.5,1.2,0.7,1.8c0.1,0.2,0.3,0.4,0.6,0.4h4.7c0.6,0,0.9,0.7,0.5,1.1l-2.9,2.9c-0.2,0.2-0.3,0.6,0,0.9l4.1,4.6
	c0.1,0.1,0.3,0.2,0.5,0.2h6.1c0.2,0,0.4,0.1,0.5,0.2l3.4,4.3c0.1,0.2,0.2,0.4,0.1,0.6c-0.4,1.4-0.7,3-0.9,4.6
	c-0.5,3.2-0.5,6.2-0.3,8.6c0,0.1,0,0.2,0.1,0.3C24,106,29,113.6,36,120.7c11.4,11.5,18.5,15.7,29.2,18c9,1.9,16.4,0.8,20,0
	c10.7-2.3,18.1-6.6,29.7-18.6c6.7-6.9,11.6-14.3,14.8-20.1c0.1-0.1,0.1-0.2,0.1-0.3c0.2-2.5,0.1-5.4-0.3-8.6
	c-0.2-1.7-0.6-3.2-0.9-4.6c-0.1-0.2,0-0.4,0.1-0.6l3.4-4.3c0.1-0.2,0.3-0.2,0.5-0.2h6.1c0.2,0,0.4-0.1,0.5-0.2l4.1-4.6
	c0.2-0.3,0.2-0.7,0-0.9l-2.9-2.9c-0.4-0.4-0.1-1.1,0.5-1.1h4.7c0.2,0,0.5-0.1,0.6-0.4c0.3-0.6,0.5-1.1,0.7-1.8
	c0.9-2.5,1.1-4.8,1.1-6.5c0-0.2-0.1-0.4-0.3-0.6c-0.2-0.2-0.5-0.3-0.8-0.5c-1-0.6-2.1-1.1-3.1-1.6c-0.6-0.2-0.5-1,0.1-1.2
	c1-0.3,2-0.8,3-1.5c0.8-0.5,1.4-1.1,2-1.7c0.1-0.1,0.2-0.3,0.2-0.5v-8.3C149,46.9,148.8,46.6,148.4,46.5z M94.9,59.8
	c1.1-1.8,2.9-4,3.1-4.2c0.7-0.8,1.4-1.6,2-2.3c0.7-0.7,1.8-0.9,2.6-0.4c2.4,1.3,5.2,3.4,7.4,6.9c1.6,2.6,2.3,5.1,2.6,7.4
	c0.1,0.8-0.3,1.7-1,2.1c-5.4,3.4-10.9,6.8-16.3,10.2c-1.3,0.8-3,0-3.3-1.5c-0.3-2.1-0.4-3.9-0.4-5.2C91.7,70.5,91.7,64.8,94.9,59.8z
	 M40.3,59.8c2.1-3.5,5-5.6,7.4-6.9c0.9-0.5,1.9-0.3,2.6,0.4c0.7,0.7,1.3,1.5,2,2.3c0.2,0.2,2,2.5,3.1,4.2c3.1,5,3.2,10.8,3.2,13
	c0,1.4-0.1,3.2-0.4,5.2c-0.2,1.5-2,2.3-3.3,1.5c-5.4-3.4-10.9-6.8-16.3-10.2c-0.7-0.4-1.1-1.3-1-2.1C38,64.9,38.7,62.3,40.3,59.8z
	 M114.8,96.6c-2.3,5.2-6.1,11.8-12.3,18.3c-8.1,8.5-12.7,12.1-19.3,13.9c-7.6,2-13.9,0.6-16.1,0c-6.5-1.8-11.2-5.4-19.3-13.9
	c-6.2-6.5-10-13.2-12.3-18.3c-0.2-0.4-0.2-0.9-0.1-1.4c0.7-2,1.6-4.1,2.6-6.2c0.5-1,1-1.9,1.5-2.9c0.6-1.2,2.3-1.3,3.2-0.3
	c-0.3,4.2-0.6,8.3-1,12.5c-0.3,3.4,3.7,5.4,6.3,3.3l6.6-5.5c1.5,0.9,3.2,1.8,5.1,2.6c5.6,2.4,10.9,3.3,15.1,3.5c0.1,0,0.2,0,0.3,0
	c0.1,0,0.2,0,0.3,0c4.3-0.2,9.5-1.1,15.1-3.5c1.8-0.8,3.5-1.6,5.1-2.6l6.6,5.5c2.6,2.2,6.6,0.1,6.3-3.3c-0.3-4.2-0.6-8.3-1-12.5
	c0.4-0.5,1-0.7,1.5-0.7c0.7,0,1.3,0.3,1.7,1c0.5,0.9,1,1.9,1.5,2.9c1,2.2,1.9,4.3,2.6,6.2C115,95.7,115,96.2,114.8,96.6z"/>
</svg>
