<?xml version="1.0" encoding="utf-8"?>
<!-- Generator: Adobe Illustrator 21.0.0, SVG Export Plug-In . SVG Version: 6.00 Build 0)  -->
<svg version="1.1" xmlns="http://www.w3.org/2000/svg" xmlns:xlink="http://www.w3.org/1999/xlink" x="0px" y="0px"
	 viewBox="0 0 195.3 118.3" style="enable-background:new 0 0 195.3 118.3;" xml:space="preserve">
<style type="text/css">
	.st0{display:none;}
	.st1{display:inline;}
	.st2{fill:#2A6B24;}
	.st3{fill:#5FBB46;}
	.st4{fill:#DBDBDD;}
	.st5{fill:#B0B0B0;}
	.st6{fill:#FFFFFF;}
	.st7{fill:#881B1A;}
	.st8{fill:#ED1C24;}
	.st9{fill:#65BD61;}
	.st10{display:inline;fill:#CCCCCB;}
	.st11{display:inline;fill:#FFFFFF;}
	.st12{display:inline;fill:#171717;stroke:#666766;stroke-width:2.7912;stroke-miterlimit:10;}
	.st13{display:inline;fill:url(#SVGID_1_);}
	.st14{display:inline;stroke:#666766;stroke-width:2.7912;stroke-miterlimit:10;}
	.st15{fill:url(#SVGID_2_);}
	.st16{fill:url(#SVGID_3_);}
	.st17{fill:url(#SVGID_4_);}
	.st18{fill:url(#SVGID_5_);}
	.st19{fill:url(#SVGID_6_);}
	.st20{fill:url(#SVGID_7_);}
	.st21{fill:url(#SVGID_8_);}
	.st22{fill:url(#SVGID_9_);}
	.st23{display:inline;fill:url(#SVGID_10_);}
	.st24{display:inline;fill:url(#SVGID_11_);}
	.st25{display:inline;fill:url(#SVGID_12_);}
	.st26{fill:url(#SVGID_13_);}
	.st27{fill:url(#SVGID_14_);}
	.st28{fill:url(#SVGID_15_);}
	.st29{fill:url(#SVGID_16_);}
	.st30{fill:url(#SVGID_17_);}
	.st31{fill:url(#SVGID_18_);}
	.st32{fill:url(#SVGID_19_);}
	.st33{fill:url(#SVGID_20_);}
	.st34{fill:url(#SVGID_21_);}
	.st35{fill:url(#SVGID_22_);}
	.st36{fill:url(#SVGID_23_);}
</style>
<g id="OFF">
	<g id="on_1_" class="st0">
		<g id="on" class="st1">
			<path class="st2" d="M58.4,104.5c-26.5,0-48.1-19.3-48.1-42.9v-5c0-23.6,21.7-42.9,48.1-42.9h67.5c1.7-1.6,3.4-3.1,5.3-4.6H52.9
				C24.1,9,0.6,30.3,0.6,56.2v5.6c0,26,23.5,47.2,52.3,47.2h78.3c-1.8-1.4-3.6-2.9-5.3-4.6H58.4z"/>
			<path class="st3" d="M9.1,56.5v5.1c0,23.7,21.7,43.1,48.3,43.1h67.7C113.2,93,105.8,76.9,105.8,59c0-17.9,7.4-34,19.2-45.6H57.4
				C30.8,13.4,9.1,32.8,9.1,56.5z"/>
			<path class="st4" d="M135.9,0.2c-13.8,0-26.4,4.7-36.4,12.6c-1.7,1.3-3.3,2.7-4.9,4.3c-11,10.8-17.9,25.7-17.9,42.4
				c0,16.6,6.9,31.6,17.9,42.4c1.5,1.5,3.2,2.9,4.9,4.3c10.1,7.9,22.7,12.6,36.4,12.6c32.7,0,59.2-26.5,59.2-59.2
				C195.1,26.7,168.6,0.2,135.9,0.2z M135.9,111c-28.5,0-51.6-23.1-51.6-51.6c0-28.5,23.1-51.6,51.6-51.6
				c28.5,0,51.6,23.1,51.6,51.6C187.5,87.9,164.4,111,135.9,111z"/>
			<path class="st5" d="M135.9,6.9c-29,0-52.4,23.5-52.4,52.4c0,29,23.5,52.4,52.4,52.4c29,0,52.4-23.5,52.4-52.4
				C188.3,30.4,164.8,6.9,135.9,6.9z"/>
		</g>
		<g class="st1">
			<path class="st6" d="M109.9,71.4c-2.8-3-4.2-7.1-4.2-12.3c0-5.3,1.4-9.5,4.2-12.6c2.8-3.1,6.6-4.6,11.3-4.6
				c4.8,0,8.6,1.5,11.3,4.6c2.8,3.1,4.2,7.3,4.2,12.6c0,5.2-1.4,9.3-4.2,12.3c-2.8,3-6.6,4.5-11.3,4.5
				C116.5,76,112.7,74.4,109.9,71.4z M127.7,67.3c1.6-2,2.3-4.7,2.3-8.2c0-3.6-0.8-6.4-2.3-8.4s-3.7-3-6.5-3c-2.7,0-4.9,1-6.4,3
				s-2.3,4.8-2.3,8.4c0,3.5,0.8,6.2,2.3,8.2c1.5,2,3.7,3,6.4,3S126.2,69.2,127.7,67.3z"/>
			<path class="st6" d="M145.9,75.1h-3.1h-3.2V42.8h3.5h3.5l13,22.7V42.8h3.1h3.2v32.3h-3.4h-3.4l-13.3-23.3V75.1z"/>
		</g>
	</g>
	<g id="off">
		<path class="st7" d="M137.3,104.5c26.5,0,48.1-19.3,48.1-42.9v-5c0-23.6-21.7-42.9-48.1-42.9H69.8c-1.7-1.6-3.4-3.1-5.3-4.6h78.3
			c28.8,0,52.3,21.3,52.3,47.2v5.6c0,26-23.5,47.2-52.3,47.2H64.5c1.8-1.4,3.6-2.9,5.3-4.6H137.3z"/>
		<path class="st8" d="M186.4,56.6v5.1c0,23.7-21.7,43-48.1,43H70.8C82.6,93.1,90,77,90,59.1c0-17.9-7.4-34-19.2-45.5h67.5
			C164.7,13.6,186.4,32.9,186.4,56.6z"/>
		<path class="st4" d="M0.6,59.4c0,32.7,26.5,59.2,59.2,59.2c13.8,0,26.4-4.7,36.4-12.6c1.7-1.3,3.3-2.7,4.9-4.3
			C112.2,91,119,76,119,59.4c0-16.6-6.9-31.6-17.9-42.4c-1.5-1.5-3.2-2.9-4.9-4.3C86.2,4.9,73.6,0.2,59.8,0.2
			C27.1,0.2,0.6,26.7,0.6,59.4z M8.2,59.4c0-28.5,23.1-51.6,51.6-51.6c28.5,0,51.6,23.1,51.6,51.6c0,28.5-23.1,51.6-51.6,51.6
			C31.3,111,8.2,87.9,8.2,59.4z"/>
		<path class="st5" d="M7.4,59.4c0,29,23.5,52.4,52.4,52.4c29,0,52.4-23.5,52.4-52.4c0-29-23.5-52.4-52.4-52.4
			C30.8,6.9,7.4,30.4,7.4,59.4z"/>
		<g>
			<path class="st6" d="M21.9,71.4c-2.8-3-4.2-7.1-4.2-12.3c0-5.3,1.4-9.5,4.2-12.6c2.8-3.1,6.6-4.6,11.3-4.6
				c4.8,0,8.6,1.5,11.3,4.6c2.8,3.1,4.2,7.3,4.2,12.6c0,5.2-1.4,9.3-4.2,12.3c-2.8,3-6.6,4.5-11.3,4.5C28.5,76,24.7,74.4,21.9,71.4z
				 M39.7,67.3c1.6-2,2.3-4.7,2.3-8.2c0-3.6-0.8-6.4-2.3-8.4s-3.7-3-6.5-3c-2.7,0-4.9,1-6.4,3s-2.3,4.8-2.3,8.4
				c0,3.5,0.8,6.2,2.3,8.2c1.5,2,3.7,3,6.4,3S38.1,69.2,39.7,67.3z"/>
			<path class="st6" d="M51.9,75.1V42.8h23v2.9v2.9H58.6v7.3h14.2v2.8v2.8H58.6v13.7h-3.4H51.9z"/>
			<path class="st6" d="M77.1,75.1V42.8h23v2.9v2.9H83.9v7.3H98v2.8v2.8H83.9v13.7h-3.4H77.1z"/>
		</g>
	</g>
	<g id="Toggle_On_ios" class="st0">
		<g id="switch_on_4_" class="st1">
			<path id="base_on_4_" class="st9" d="M195.3,59.2c0,32.4-26.8,59.2-59.4,59.2H59.4C26.8,118.3,0,91.6,0,59.2l0,0
				C0,26.7,26.8,0,59.4,0H136C168.5,0,195.3,26.4,195.3,59.2L195.3,59.2z"/>
			<ellipse id="circle_off_4_" class="st6" cx="137.9" cy="59.2" rx="53.6" ry="53.4"/>
		</g>
	</g>
	<g id="Toggle_off_ios" class="st0">
		<path id="base_on_3_" class="st10" d="M195.3,59.3c0,32.5-26.8,59.3-59.4,59.3H59.4c-32.6,0-59.4-26.8-59.4-59.3l0,0
			C0.1,26.8,26.9,0,59.4,0H136C168.5,0,195.3,26.4,195.3,59.3L195.3,59.3z"/>
		<ellipse id="circle_off_3_" class="st11" cx="59.1" cy="59.3" rx="53.6" ry="53.5"/>
	</g>
	<g id="switch_off_plug" class="st0">
		<rect x="1.5" y="1.6" class="st12" width="192.3" height="115.7"/>
		<path d="M192.7,14.5"/>
		<linearGradient id="SVGID_1_" gradientUnits="userSpaceOnUse" x1="49.8354" y1="54.1507" x2="49.8354" y2="65.5146">
			<stop  offset="0" style="stop-color:#A5A7AA"/>
			<stop  offset="1" style="stop-color:#6D6E71"/>
		</linearGradient>
		<rect x="47.7" y="42" class="st13" width="4.3" height="28.8"/>
		<rect x="1.5" y="1.6" class="st14" width="192.3" height="115.7"/>
		<path class="st1" d="M192.7,14.5"/>
		<g class="st1">
			<linearGradient id="SVGID_2_" gradientUnits="userSpaceOnUse" x1="10.8709" y1="59.385" x2="184.4624" y2="59.385">
				<stop  offset="0" style="stop-color:#232323"/>
				<stop  offset="0.1683" style="stop-color:#828486"/>
				<stop  offset="1" style="stop-color:#6B6B6B"/>
			</linearGradient>
			<polygon class="st15" points="184.5,89.1 184.5,30.6 99,30.6 29.6,27 26,27.5 10.9,34 10.9,83.8 26,91.2 29.6,91.8 98.9,89.1 
				184.5,89.1 			"/>
			<polygon class="st6" points="29.6,30.7 96.1,34.2 96.1,34.3 180.8,34.3 180.8,85.4 97.1,85.4 29.6,88.1 			"/>
			<linearGradient id="SVGID_3_" gradientUnits="userSpaceOnUse" x1="156.3018" y1="59.8366" x2="174.7773" y2="59.8366">
				<stop  offset="0" style="stop-color:#F26122"/>
				<stop  offset="1" style="stop-color:#B31217"/>
			</linearGradient>
			<path class="st16" d="M174.8,59.8c0-5.1-4.2-9.2-9.2-9.2c-5.1,0-9.2,4.1-9.2,9.2c0,5.1,4.1,9.2,9.2,9.2
				C170.6,69.1,174.8,64.9,174.8,59.8L174.8,59.8z"/>
			<path class="st6" d="M160,59.8c0-3.1,2.5-5.5,5.5-5.5c3.1,0,5.5,2.5,5.5,5.5c0,3.1-2.5,5.5-5.5,5.5C162.5,65.4,160,62.9,160,59.8
				L160,59.8z"/>
			<linearGradient id="SVGID_4_" gradientUnits="userSpaceOnUse" x1="29.6485" y1="59.6364" x2="96.9626" y2="59.6364">
				<stop  offset="0" style="stop-color:#FFFFFF"/>
				<stop  offset="1" style="stop-color:#D9D9D9"/>
			</linearGradient>
			<polygon class="st17" points="96.3,34.2 29.6,30.9 29.6,88.3 96.3,85.4 			"/>
			<linearGradient id="SVGID_5_" gradientUnits="userSpaceOnUse" x1="48.9646" y1="57.3298" x2="48.9646" y2="68.6937">
				<stop  offset="0" style="stop-color:#A5A7AA"/>
				<stop  offset="1" style="stop-color:#6D6E71"/>
			</linearGradient>
			<rect x="46.8" y="45.1" class="st18" width="4.3" height="28.8"/>
		</g>
	</g>
	<g id="switch_on_plug" class="st0">
		
			<rect x="1.5" y="1.6" transform="matrix(-1 -4.489488e-11 4.489488e-11 -1 195.3333 118.77)" class="st14" width="192.3" height="115.7"/>
		<path class="st1" d="M192.9,14.3"/>
		<g class="st1">
			
				<linearGradient id="SVGID_6_" gradientUnits="userSpaceOnUse" x1="11.2042" y1="59.385" x2="184.7958" y2="59.385" gradientTransform="matrix(-1 0 0 1 195.6667 0)">
				<stop  offset="0" style="stop-color:#232323"/>
				<stop  offset="0.1683" style="stop-color:#828486"/>
				<stop  offset="1" style="stop-color:#6B6B6B"/>
			</linearGradient>
			<polygon class="st19" points="10.9,89.1 96.4,89.1 165.7,91.8 169.4,91.2 184.5,83.8 184.5,34 169.4,27.5 165.7,27 96.4,30.6 
				10.9,30.6 10.9,89.1 			"/>
			<polygon class="st6" points="165.7,88.1 98.3,85.4 14.6,85.4 14.6,34.3 99.2,34.3 99.2,34.2 165.7,30.7 			"/>
			
				<linearGradient id="SVGID_7_" gradientUnits="userSpaceOnUse" x1="29.9818" y1="59.6364" x2="97.2959" y2="59.6364" gradientTransform="matrix(-1 0 0 1 195.6667 0)">
				<stop  offset="0" style="stop-color:#FFFFFF"/>
				<stop  offset="1" style="stop-color:#D9D9D9"/>
			</linearGradient>
			<polygon class="st20" points="99,34.2 165.7,30.9 165.7,88.3 99,85.4 			"/>
			<linearGradient id="SVGID_8_" gradientUnits="userSpaceOnUse" x1="28.6923" y1="61.7308" x2="28.6923" y2="50.3668">
				<stop  offset="0" style="stop-color:#1C803F"/>
				<stop  offset="1" style="stop-color:#2DB34A"/>
			</linearGradient>
			<rect x="26.5" y="45.1" class="st21" width="4.3" height="28.8"/>
			<linearGradient id="SVGID_9_" gradientUnits="userSpaceOnUse" x1="138.0307" y1="59.8366" x2="156.5063" y2="59.8366">
				<stop  offset="0" style="stop-color:#A5A7AA"/>
				<stop  offset="1" style="stop-color:#6D6E71"/>
			</linearGradient>
			<path class="st22" d="M156.5,59.8c0-5.1-4.2-9.2-9.2-9.2c-5.1,0-9.2,4.1-9.2,9.2c0,5.1,4.1,9.2,9.2,9.2
				C152.4,69.1,156.5,64.9,156.5,59.8L156.5,59.8z"/>
			<path class="st6" d="M141.7,59.8c0-3.1,2.5-5.5,5.5-5.5c3.1,0,5.5,2.5,5.5,5.5c0,3.1-2.5,5.5-5.5,5.5
				C144.2,65.4,141.7,62.9,141.7,59.8L141.7,59.8z"/>
		</g>
	</g>
	<g id="Switch_off_scritta" class="st0">
		<rect x="1.5" y="1.6" class="st12" width="192.3" height="115.7"/>
		<linearGradient id="SVGID_10_" gradientUnits="userSpaceOnUse" x1="11.7417" y1="56.2059" x2="185.3332" y2="56.2059">
			<stop  offset="0" style="stop-color:#232323"/>
			<stop  offset="0.1683" style="stop-color:#828486"/>
			<stop  offset="1" style="stop-color:#6B6B6B"/>
		</linearGradient>
		<polygon class="st23" points="185.3,85.9 185.3,27.4 99.9,27.4 30.5,23.8 26.8,24.4 11.7,30.8 11.7,80.6 26.8,88 30.5,88.6 
			99.8,85.9 185.3,85.9 		"/>
		<polygon class="st11" points="30.5,27.5 97,31 97,31.1 181.6,31.1 181.6,82.2 97.9,82.2 30.5,84.9 		"/>
		<linearGradient id="SVGID_11_" gradientUnits="userSpaceOnUse" x1="30.5193" y1="56.4573" x2="97.8334" y2="56.4573">
			<stop  offset="0" style="stop-color:#FFFFFF"/>
			<stop  offset="1" style="stop-color:#D9D9D9"/>
		</linearGradient>
		<polygon class="st24" points="97.2,31 30.5,27.8 30.5,85.2 97.2,82.2 		"/>
		<linearGradient id="SVGID_12_" gradientUnits="userSpaceOnUse" x1="49.8354" y1="54.1507" x2="49.8354" y2="65.5146">
			<stop  offset="0" style="stop-color:#A5A7AA"/>
			<stop  offset="1" style="stop-color:#6D6E71"/>
		</linearGradient>
		<rect x="47.7" y="42" class="st25" width="4.3" height="28.8"/>
		<rect x="1.5" y="1.6" class="st14" width="192.3" height="115.7"/>
		<g class="st1">
			<linearGradient id="SVGID_13_" gradientUnits="userSpaceOnUse" x1="10.8709" y1="59.385" x2="184.4624" y2="59.385">
				<stop  offset="0" style="stop-color:#232323"/>
				<stop  offset="0.1683" style="stop-color:#828486"/>
				<stop  offset="1" style="stop-color:#6B6B6B"/>
			</linearGradient>
			<polygon class="st26" points="184.5,89.1 184.5,30.6 99,30.6 29.6,27 26,27.5 10.9,34 10.9,83.8 26,91.2 29.6,91.8 98.9,89.1 
				184.5,89.1 			"/>
			<polygon class="st6" points="29.6,30.7 96.1,34.2 96.1,34.3 180.8,34.3 180.8,85.4 97.1,85.4 29.6,88.1 			"/>
			<linearGradient id="SVGID_14_" gradientUnits="userSpaceOnUse" x1="29.6485" y1="59.6364" x2="96.9626" y2="59.6364">
				<stop  offset="0" style="stop-color:#FFFFFF"/>
				<stop  offset="1" style="stop-color:#D9D9D9"/>
			</linearGradient>
			<polygon class="st27" points="96.3,34.2 29.6,30.9 29.6,88.3 96.3,85.4 			"/>
			<linearGradient id="SVGID_15_" gradientUnits="userSpaceOnUse" x1="48.9646" y1="57.3298" x2="48.9646" y2="68.6937">
				<stop  offset="0" style="stop-color:#A5A7AA"/>
				<stop  offset="1" style="stop-color:#6D6E71"/>
			</linearGradient>
			<rect x="46.8" y="45.1" class="st28" width="4.3" height="28.8"/>
			<g>
				<linearGradient id="SVGID_16_" gradientUnits="userSpaceOnUse" x1="119.6168" y1="56.5124" x2="119.6168" y2="71.5124">
					<stop  offset="0" style="stop-color:#F26122"/>
					<stop  offset="1" style="stop-color:#B31217"/>
				</linearGradient>
				<path class="st29" d="M110.9,69.4c-2.2-2.3-3.2-5.5-3.2-9.5c0-4.1,1.1-7.3,3.2-9.7c2.2-2.4,5.1-3.6,8.7-3.6
					c3.7,0,6.6,1.2,8.7,3.6c2.2,2.4,3.2,5.6,3.2,9.7c0,4-1.1,7.1-3.2,9.5c-2.2,2.3-5.1,3.5-8.7,3.5C115.9,72.9,113,71.8,110.9,69.4z
					 M124.6,66.2c1.2-1.5,1.8-3.6,1.8-6.3c0-2.8-0.6-4.9-1.8-6.5c-1.2-1.6-2.9-2.3-5-2.3c-2.1,0-3.8,0.8-5,2.3
					c-1.2,1.6-1.8,3.7-1.8,6.5c0,2.7,0.6,4.8,1.8,6.3c1.2,1.5,2.8,2.3,5,2.3S123.4,67.8,124.6,66.2z"/>
				<linearGradient id="SVGID_17_" gradientUnits="userSpaceOnUse" x1="142.8766" y1="56.5124" x2="142.8766" y2="71.5124">
					<stop  offset="0" style="stop-color:#F26122"/>
					<stop  offset="1" style="stop-color:#B31217"/>
				</linearGradient>
				<path class="st30" d="M134,72.3V47.4h17.7v2.2v2.2h-12.5v5.7h10.9v2.1v2.2h-10.9v10.5h-2.6H134z"/>
				<linearGradient id="SVGID_18_" gradientUnits="userSpaceOnUse" x1="162.3336" y1="56.5124" x2="162.3336" y2="71.5124">
					<stop  offset="0" style="stop-color:#F26122"/>
					<stop  offset="1" style="stop-color:#B31217"/>
				</linearGradient>
				<path class="st31" d="M153.5,72.3V47.4h17.7v2.2v2.2h-12.5v5.7h10.9v2.1v2.2h-10.9v10.5h-2.6H153.5z"/>
			</g>
		</g>
	</g>
	<g id="switch_ON_scritta" class="st0">
		
			<rect x="1.5" y="1.6" transform="matrix(-1 -4.489488e-11 4.489488e-11 -1 195.3333 118.77)" class="st14" width="192.3" height="115.7"/>
		<path class="st1" d="M192.9,14.3"/>
		<g class="st1">
			
				<linearGradient id="SVGID_19_" gradientUnits="userSpaceOnUse" x1="11.2042" y1="59.385" x2="184.7958" y2="59.385" gradientTransform="matrix(-1 0 0 1 195.6667 0)">
				<stop  offset="0" style="stop-color:#232323"/>
				<stop  offset="0.1683" style="stop-color:#828486"/>
				<stop  offset="1" style="stop-color:#6B6B6B"/>
			</linearGradient>
			<polygon class="st32" points="10.9,89.1 96.4,89.1 165.7,91.8 169.4,91.2 184.5,83.8 184.5,34 169.4,27.5 165.7,27 96.4,30.6 
				10.9,30.6 10.9,89.1 			"/>
			<polygon class="st6" points="165.7,88.1 98.3,85.4 14.6,85.4 14.6,34.3 99.2,34.3 99.2,34.2 165.7,30.7 			"/>
			
				<linearGradient id="SVGID_20_" gradientUnits="userSpaceOnUse" x1="29.9818" y1="59.6364" x2="97.2959" y2="59.6364" gradientTransform="matrix(-1 0 0 1 195.6667 0)">
				<stop  offset="0" style="stop-color:#FFFFFF"/>
				<stop  offset="1" style="stop-color:#D9D9D9"/>
			</linearGradient>
			<polygon class="st33" points="99,34.2 165.7,30.9 165.7,88.3 99,85.4 			"/>
			<linearGradient id="SVGID_21_" gradientUnits="userSpaceOnUse" x1="138.0307" y1="59.8366" x2="156.5063" y2="59.8366">
				<stop  offset="0" style="stop-color:#A5A7AA"/>
				<stop  offset="1" style="stop-color:#6D6E71"/>
			</linearGradient>
			<path class="st34" d="M156.5,59.8c0-5.1-4.2-9.2-9.2-9.2c-5.1,0-9.2,4.1-9.2,9.2c0,5.1,4.1,9.2,9.2,9.2
				C152.4,69.1,156.5,64.9,156.5,59.8L156.5,59.8z"/>
			<path class="st6" d="M141.7,59.8c0-3.1,2.5-5.5,5.5-5.5c3.1,0,5.5,2.5,5.5,5.5c0,3.1-2.5,5.5-5.5,5.5
				C144.2,65.4,141.7,62.9,141.7,59.8L141.7,59.8z"/>
			<g>
				<linearGradient id="SVGID_22_" gradientUnits="userSpaceOnUse" x1="40.5029" y1="69.8366" x2="40.5029" y2="49.4432">
					<stop  offset="0" style="stop-color:#1C803F"/>
					<stop  offset="1" style="stop-color:#2DB34A"/>
				</linearGradient>
				<path class="st35" d="M31.7,69.6c-2.2-2.3-3.2-5.5-3.2-9.5c0-4.1,1.1-7.3,3.2-9.7c2.2-2.4,5.1-3.6,8.8-3.6
					c3.7,0,6.6,1.2,8.8,3.6c2.2,2.4,3.2,5.6,3.2,9.7c0,4-1.1,7.2-3.2,9.5c-2.2,2.3-5.1,3.5-8.8,3.5C36.8,73.1,33.9,71.9,31.7,69.6z
					 M45.5,66.4c1.2-1.5,1.8-3.6,1.8-6.4c0-2.8-0.6-4.9-1.8-6.5c-1.2-1.6-2.9-2.3-5-2.3c-2.1,0-3.8,0.8-5,2.3
					c-1.2,1.6-1.8,3.7-1.8,6.5c0,2.7,0.6,4.8,1.8,6.4c1.2,1.5,2.9,2.3,5,2.3S44.3,67.9,45.5,66.4z"/>
				<linearGradient id="SVGID_23_" gradientUnits="userSpaceOnUse" x1="64.9067" y1="69.8366" x2="64.9067" y2="49.4432">
					<stop  offset="0" style="stop-color:#1C803F"/>
					<stop  offset="1" style="stop-color:#2DB34A"/>
				</linearGradient>
				<path class="st36" d="M59.6,72.4h-2.4h-2.4v-25h2.7h2.7l10,17.6V47.4h2.4h2.4v25h-2.6h-2.6l-10.3-18V72.4z"/>
			</g>
		</g>
	</g>
</g>
<g id="Livello_3">
	<g id="Livello_5">
	</g>
</g>
</svg>
